<?xml version="1.0" encoding="UTF-8"?>
<svg version="1.1" xmlns="http://www.w3.org/2000/svg" width="1024" height="1024">
<path d="M0 0 C337.92 0 675.84 0 1024 0 C1024 337.92 1024 675.84 1024 1024 C686.08 1024 348.16 1024 0 1024 C0 686.08 0 348.16 0 0 Z " fill="#FEFEFE" transform="translate(0,0)"/>
<path d="M0 0 C0.78991333 -0.00067474 1.57982666 -0.00134949 2.39367676 -0.00204468 C15.32601781 0.01540677 27.77385095 0.82630941 40.5 3.25 C41.46260742 3.42160645 42.42521484 3.59321289 43.41699219 3.77001953 C57.65550987 6.3258266 71.01511028 10.04710479 84.5 15.25 C86.17311368 15.8751697 87.84629134 16.50016821 89.51953125 17.125 C105.33830882 23.13983739 120.53069367 30.64994808 134.5 40.25 C135.02867676 40.61029297 135.55735352 40.97058594 136.10205078 41.34179688 C145.0346789 47.45801391 153.38559982 54.08963812 161.5 61.25 C162.25361816 61.90887207 162.25361816 61.90887207 163.02246094 62.58105469 C191.16072022 87.27754901 214.63213609 119.79731946 227.484375 155.08203125 C227.72119995 155.73027863 227.9580249 156.378526 228.20202637 157.04641724 C229.32759833 160.16105573 230.40118274 163.27927672 231.421875 166.43066406 C234.42259865 175.14411406 238.65230581 180.19350842 245.5 186.25 C258.29526944 198.7522392 263.3958573 214.17996083 264.66796875 231.75 C264.75282532 232.81670929 264.83768188 233.88341858 264.92510986 234.98245239 C265.19223627 238.4041271 265.44161064 241.82673795 265.6875 245.25 C265.77371613 246.4135199 265.85993225 247.57703979 265.94876099 248.77581787 C266.92011139 261.9631941 267.87240947 275.14704994 267.9375 288.375 C267.94740967 289.37660156 267.95731934 290.37820313 267.9675293 291.41015625 C267.8642664 299.88514314 266.20899983 307.7247931 261.0625 314.625 C260.48628906 315.41648437 259.91007813 316.20796875 259.31640625 317.0234375 C257.49898391 319.25124553 255.57015743 321.25718912 253.5 323.25 C254.04527344 323.50652344 254.59054687 323.76304687 255.15234375 324.02734375 C266.71393134 329.89707284 273.09961593 338.11751248 277.5 350.25 C284.64747317 380.93538748 271.96936017 419.8760089 256.5 446.25 C254.32090886 449.72177232 252.02339265 453.02101414 249.5 456.25 C248.99726562 456.90484375 248.49453125 457.5596875 247.9765625 458.234375 C244.31848238 462.76342657 244.31848238 462.76342657 241.84124756 464.23609924 C238.13700443 466.48456095 236.71036636 467.51532514 235.47753906 471.82080078 C235.37358149 473.1935207 235.30481323 474.56921968 235.265625 475.9453125 C235.21700821 476.68675003 235.16839142 477.42818756 235.11830139 478.1920929 C234.96637728 480.58566728 234.85857374 482.97910755 234.75 485.375 C234.55385397 488.64022117 234.33609878 491.90394329 234.12109375 495.16796875 C234.04757942 496.36079216 234.04757942 496.36079216 233.97257996 497.57771301 C233.49403627 505.10622808 232.40124166 512.45448165 231.05078125 519.87109375 C230.35138387 524.05475168 230.35138387 524.05475168 230.5 528.25 C231.8137738 530.20393845 231.8137738 530.20393845 233.6875 531.8125 C234.33074219 532.41320312 234.97398437 533.01390625 235.63671875 533.6328125 C237.05350109 534.86247265 238.51718973 536.03832204 240 537.1875 C245.98727537 542.12700218 250.58750787 548.55733031 255.375 554.625 C255.86371582 555.2442334 256.35243164 555.8634668 256.85595703 556.50146484 C260.37464159 560.99928319 260.37464159 560.99928319 261.5 563.25 C261.38256381 561.62443587 261.25550539 559.99956712 261.125 558.375 C261.05539062 557.47007812 260.98578125 556.56515625 260.9140625 555.6328125 C260.5760565 552.87136723 260.08458155 550.29832298 259.484375 547.58984375 C254.98318194 525.62237732 259.44143138 503.47593996 270.5 484.25 C272.64364682 481.04535627 274.95802294 478.14191157 277.5 475.25 C278.3971875 473.950625 278.3971875 473.950625 279.3125 472.625 C286.38006865 464.95163975 297.05553486 458.73754684 307.6015625 458.046875 C319.21247052 457.89240616 327.13045548 458.92201476 335.65625 467.22265625 C343.95043754 476.34274806 342.68498328 490.16166002 342.42044067 501.74191284 C341.71867197 536.61496279 350.97690217 566.10249677 368.87890625 595.82421875 C371.64102795 600.43462331 374.19423038 605.14810524 376.75 609.875 C386.51421215 627.7798341 397.10323371 645.04252356 409.5 661.25 C409.9753418 661.88711914 410.45068359 662.52423828 410.94042969 663.18066406 C416.26046002 670.26535106 421.10604801 675.25662955 429.41796875 678.8515625 C432.91738419 680.43938345 436.03058756 682.34166629 439.25 684.4375 C440.75820312 685.41783203 440.75820312 685.41783203 442.296875 686.41796875 C443.02390625 687.02253906 443.7509375 687.62710938 444.5 688.25 C444.5 691.3165015 444.16399857 692.26229637 442.77734375 694.875 C442.40673828 695.5769751 442.03613281 696.2789502 441.65429688 697.00219727 C441.25275391 697.74397217 440.85121094 698.48574707 440.4375 699.25 C440.03208984 700.00659912 439.62667969 700.76319824 439.20898438 701.54272461 C435.92632442 707.60366408 432.55386449 713.66387125 428.5 719.25 C428.17 719.25 427.84 719.25 427.5 719.25 C427.42523437 718.24839844 427.35046875 717.24679687 427.2734375 716.21484375 C426.53647379 706.60429336 426.53647379 706.60429336 421.39453125 698.77734375 C420.76933594 698.27332031 420.14414062 697.76929688 419.5 697.25 C418.36111328 696.32380859 418.36111328 696.32380859 417.19921875 695.37890625 C415.49276358 694.01745757 413.78028173 692.66353567 412.0625 691.31640625 C390.16094902 673.65494212 376.1121726 646.26982755 362.5 622.25 C361.90155273 621.19490234 361.30310547 620.13980469 360.68652344 619.05273438 C358.43011396 615.07172065 356.17492962 611.09011003 353.93359375 607.10058594 C351.72463757 603.16880919 349.51478523 599.24284964 347.1953125 595.375 C332.04274638 569.90453867 323.78586501 541.25471151 323.24609375 511.69921875 C323.22832886 510.7552977 323.21056396 509.81137665 323.19226074 508.83885193 C323.10860188 504.01923105 323.05787695 499.2019417 323.05322266 494.3815918 C323.03695721 492.58512212 323.02052549 490.78865394 323.00390625 488.9921875 C323.01223984 488.15560104 323.02057343 487.31901459 323.02915955 486.45707703 C323.0205289 481.92278016 323.0205289 481.92278016 320.65087891 478.23291016 C315.28539647 475.78098822 308.38990191 476.27514553 302.89453125 478.12890625 C289.71250515 485.00352571 283.85284105 497.20690599 279.48046875 510.734375 C274.46212861 528.72842332 278.31583746 546.66533543 281.921875 564.51953125 C283.78261048 573.80016365 285.13169557 582.76640141 285.5 592.25 C287.11455078 592.28867188 287.11455078 592.28867188 288.76171875 592.328125 C299.90405224 592.71362412 311.98062998 593.16043603 320.5 601.25 C320.9375 604.375 320.9375 604.375 320.5 607.25 C318.5 609.25 318.5 609.25 316.2306366 609.47705078 C315.28078384 609.46657715 314.33093109 609.45610352 313.35229492 609.4453125 C312.26931122 609.43879669 311.18632751 609.43228088 310.07052612 609.42556763 C308.88580719 609.40888031 307.70108826 609.39219299 306.48046875 609.375 C303.94246575 609.35768093 301.4044611 609.34060071 298.86645508 609.32373047 C297.51713764 609.31151209 296.16782323 609.29895423 294.81851196 609.28607178 C287.92861736 609.22266475 281.0385962 609.20326112 274.1484375 609.1953125 C273.46629747 609.19445774 272.78415745 609.19360298 272.08134651 609.19272232 C255.1634624 609.18214002 238.3662562 610.00832581 221.5 611.25 C219.10293176 611.40857087 216.70579866 611.56616512 214.30859375 611.72265625 C186.53890271 612.66525823 186.53890271 612.66525823 163.22265625 625.7890625 C158.17264084 633.00337024 157.5224513 639.538 158.5 648.25 C159.93823399 652.99248439 162.04182356 656.80519356 166.5 659.25 C170.03312618 660.42770873 173.19948274 660.39799251 176.875 660.375 C177.64521484 660.37306641 178.41542969 660.37113281 179.20898438 660.36914062 C186.81102845 660.31638936 194.40353265 660.02942271 202 659.75 C205.70288845 659.61960818 209.40583336 659.4913432 213.10888672 659.36572266 C215.23822946 659.29305826 217.36748156 659.21763023 219.49658203 659.13818359 C222.0185926 659.05009617 224.53950966 658.9884695 227.0625 658.9375 C228.13177734 658.89302734 228.13177734 658.89302734 229.22265625 658.84765625 C232.54466242 658.80810856 234.22750864 659.04804097 236.9296875 661.05078125 C239.23839424 664.28411929 239.12183445 666.38080785 238.5 670.25 C235.62271693 673.50455368 233.23568126 674.50548925 229.02709961 674.85595703 C227.23615267 674.92559285 225.44434267 674.97494983 223.65234375 675.0078125 C222.68583389 675.04180145 221.71932404 675.07579041 220.723526 675.11080933 C217.62845141 675.21679896 214.53340181 675.29725841 211.4375 675.375 C207.40461532 675.49314903 203.3721649 675.6218173 199.33984375 675.7578125 C197.85501747 675.80788956 197.85501747 675.80788956 196.3401947 675.85897827 C189.65424823 676.10862383 183.00422598 676.53650027 176.34375 677.171875 C175.52780869 677.24600616 174.71186737 677.32013733 173.87120056 677.39651489 C168.0170085 678.00363924 162.88431689 679.04442025 158.5 683.25 C153.00942476 690.12328734 151.65124919 696.55321092 152.5 705.25 C154.20430397 711.00754502 157.00779709 717.00058738 162.17643738 720.32983398 C168.78063207 723.68930924 174.8714681 723.73251742 182.18184853 723.55065918 C184.27994047 723.49897375 186.37700626 723.47339436 188.47563171 723.45410156 C192.92172162 723.40873384 197.36694808 723.33165128 201.8125 723.25 C206.98536745 723.15539898 212.15775982 723.07401754 217.33128929 723.02624512 C219.39480489 723.00038815 221.45682652 722.9503986 223.51985168 722.89941406 C224.77182846 722.88620117 226.02380524 722.87298828 227.3137207 722.859375 C228.41464554 722.83842773 229.51557037 722.81748047 230.64985657 722.79589844 C234.20828944 723.36284883 235.36108293 724.39612608 237.5 727.25 C238.05031136 731.10217949 238.24564181 733.24226272 235.89208984 736.4230957 C232.72404968 738.84261443 230.69722282 738.83923751 226.7265625 738.98046875 C225.69337387 739.02339302 225.69337387 739.02339302 224.63931274 739.06718445 C222.25949224 739.15522309 219.8810567 739.20714627 217.5 739.25 C216.60953979 739.26629456 215.71907959 739.28258911 214.80163574 739.29937744 C206.77763521 739.43248027 198.75210883 739.54169645 190.72705078 739.57592773 C187.67953455 739.59138167 184.63315318 739.63149298 181.5859375 739.67578125 C180.66090424 739.67387283 179.73587097 739.67196442 178.7828064 739.66999817 C173.2108551 739.77575384 169.88680621 740.47516597 165.5 744.25 C161.20657373 750.73098595 161.78462662 757.75867432 162.5 765.25 C164.09325237 771.19094104 167.40110342 774.81805038 172.5 778.25 C178.12128276 780.65569305 183.11710804 781.86371788 189.1875 782.375 C190.04529053 782.45572754 190.90308105 782.53645508 191.78686523 782.61962891 C198.17677207 783.15207596 204.55299572 783.34396874 210.9609375 783.453125 C211.78924576 783.46870453 212.61755402 783.48428406 213.47096252 783.50033569 C217.66615142 783.57680673 221.85955875 783.62938593 226.05541992 783.64501953 C227.62159084 783.66635511 229.18775359 783.68830133 230.75390625 783.7109375 C231.47601288 783.70580139 232.19811951 783.70066528 232.94210815 783.69537354 C236.3267958 783.76249529 238.20018868 784.0281629 240.95288086 786.06494141 C243.21971559 789.26648328 243.04631581 791.42578936 242.5 795.25 C240.50420159 797.80591314 239.33790466 799.0931737 236.10974121 799.69737244 C234.78214783 799.66142723 234.78214783 799.66142723 233.42773438 799.62475586 C232.41988892 799.60831528 231.41204346 799.59187469 230.37365723 799.57493591 C229.29128784 799.5386055 228.20891846 799.50227509 227.09375 799.46484375 C224.80078373 799.42887788 222.50781489 799.39307559 220.21484375 799.35742188 C216.60019649 799.27646756 212.98589725 799.18713087 209.37158203 799.0925293 C205.88318735 799.0082284 202.39525608 798.95408109 198.90625 798.90234375 C197.82388062 798.86398911 196.74151123 798.82563446 195.62634277 798.78611755 C189.68673268 798.57007613 189.68673268 798.57007613 184.8203125 801.59472656 C182.16855451 806.92766293 182.61467879 812.92451222 184.125 818.59765625 C187.11668453 825.52928245 193.07390878 829.33183474 199.75 832.375 C215.09922224 838.00538441 232.35060597 839.49737482 248.5 841.25 C249.38397461 841.34716309 250.26794922 841.44432617 251.17871094 841.54443359 C259.83989602 842.38402289 268.49444246 842.47027373 277.18896484 842.49023438 C279.73177948 842.49993052 282.27378025 842.53105496 284.81640625 842.5625 C294.33648808 842.62115475 303.10500961 841.90308498 312.40136719 839.79980469 C315.5 839.25 315.5 839.25 318.5 840.25 C289.60724706 863.96981464 257.87574862 883.48552175 224.5 900.25 C223.65179687 900.67877441 222.80359375 901.10754883 221.9296875 901.54931641 C200.9331777 912.09282241 179.02715168 920.59309289 156.75 928 C156.09226593 928.21881836 155.43453186 928.43763672 154.75686646 928.66308594 C143.92088506 932.25 143.92088506 932.25 141.5 932.25 C143.39178996 925.76405276 145.44859097 919.36803854 147.71484375 913.00390625 C148.33507921 911.24647046 148.95468545 909.4888125 149.57373047 907.73095703 C149.89122253 906.82984192 150.2087146 905.92872681 150.53582764 905.00030518 C153.10305274 897.67728621 155.60172253 890.3304122 158.10717773 882.98608398 C159.06347148 880.18465408 160.02292794 877.38431957 160.98242188 874.58398438 C162.5383191 870.03485526 164.07715763 865.48026516 165.60333252 860.92108154 C166.20596398 859.1259035 166.81292834 857.33217472 167.42401123 855.53985596 C168.30520088 852.94880552 169.16840133 850.35240339 170.02734375 847.75390625 C170.42621544 846.59688454 170.42621544 846.59688454 170.83314514 845.41648865 C172.26974365 840.9957814 172.84404606 837.85530303 171.5 833.25 C170.571875 831.8578125 170.571875 831.8578125 169.625 830.4375 C162.89773061 820.34659592 163.26548908 807.83702032 165.5 796.25 C164.45245905 795.37755235 163.38613078 794.52763326 162.3125 793.6875 C161.72082031 793.21183594 161.12914062 792.73617187 160.51953125 792.24609375 C157.76112989 790.88556697 156.4538044 791.47841878 153.5 792.25 C151.60008195 793.00143976 149.7205463 793.80559012 147.859375 794.6484375 C146.78816406 795.12796875 145.71695313 795.6075 144.61328125 796.1015625 C143.50339844 796.60429688 142.39351562 797.10703125 141.25 797.625 C134.0810293 800.86750265 127.02036248 803.91773569 119.5 806.25 C119.40130615 806.83039032 119.3026123 807.41078064 119.20092773 808.00875854 C117.90943555 815.04792822 115.86688979 821.67806085 113.5625 828.4453125 C113.17017181 829.61107315 112.77784363 830.7768338 112.37362671 831.97792053 C111.31072097 835.12675311 110.24155989 838.27328368 109.16771698 841.41839218 C108.49631102 843.3858098 107.82696893 845.35391981 107.15802002 847.32217407 C96.75591874 877.90148834 85.79571846 908.31227726 73.5 938.1875 C73.1086084 939.14100342 72.7172168 940.09450684 72.31396484 941.0769043 C71.96285645 941.90617432 71.61174805 942.73544434 71.25 943.58984375 C70.95609375 944.28456787 70.6621875 944.97929199 70.359375 945.69506836 C69.5 947.25 69.5 947.25 67.5 948.25 C29.83359006 955.47952062 -12.5189712 954.49456782 -50.50976562 950.53564453 C-53.62480326 950.23807807 -56.73549965 950.05087479 -59.859375 949.87109375 C-61.8648572 949.70908437 -63.87008487 949.54388234 -65.875 949.375 C-66.76783691 949.34043701 -67.66067383 949.30587402 -68.58056641 949.27026367 C-71.30587478 948.98477288 -73.10802616 948.59823916 -75.5 947.25 C-78.31193987 943.5827803 -79.84814816 939.54102402 -81.5 935.25 C-82.0190001 933.95932217 -82.53921984 932.66913423 -83.06054688 931.37939453 C-84.79392712 927.02722569 -86.43078746 922.6410834 -88.0625 918.25 C-88.6740555 916.61725251 -89.28587737 914.98460477 -89.89794922 913.35205078 C-98.24268191 891.04261345 -106.35044744 868.64801154 -114.09634399 846.12341309 C-114.86711538 843.89776728 -115.65225956 841.67763076 -116.44018555 839.45800781 C-118.63637072 833.20867811 -120.64282847 827.17099108 -121.78515625 820.625 C-123.63403885 810.60651005 -123.63403885 810.60651005 -130.27050781 803.26318359 C-136.86734601 799.60891043 -143.78898384 796.90855996 -150.87001038 794.34671021 C-156.84702644 792.17970954 -162.47404105 789.52349259 -168.125 786.625 C-169.43368042 785.96552368 -169.43368042 785.96552368 -170.76879883 785.29272461 C-179.32939736 780.93078476 -187.63171102 776.12464192 -195.87792969 771.19873047 C-197.06137479 770.50654689 -198.27373399 769.86313301 -199.5 769.25 C-199.3141333 769.88276855 -199.1282666 770.51553711 -198.93676758 771.16748047 C-198.06067905 774.15293099 -197.18659391 777.1389649 -196.3125 780.125 C-196.02052734 781.11886719 -195.72855469 782.11273437 -195.42773438 783.13671875 C-193.82838828 788.60545056 -192.26588818 794.08186433 -190.75894165 799.57666016 C-187.85333476 810.15679214 -184.69318506 820.64780605 -181.4375 831.125 C-181.15754181 832.02774658 -180.87758362 832.93049316 -180.58914185 833.8605957 C-166.70030722 880.56231665 -166.70030722 880.56231665 -149.28759766 925.97875977 C-148.5 928.25 -148.5 928.25 -149.5 931.25 C-179.2264175 921.74690905 -207.60166461 910.23424891 -235.5 896.25 C-236.33176758 895.83540527 -237.16353516 895.42081055 -238.02050781 894.99365234 C-256.61823713 885.66185678 -274.64031061 874.76611599 -291.55029297 862.64648438 C-293.66260723 861.13353201 -295.78625003 859.63725404 -297.91015625 858.140625 C-307.49696069 851.3434906 -316.71465693 844.19508616 -325.75585938 836.68994141 C-328.21166737 834.66245602 -330.70322868 832.67994304 -333.1875 830.6875 C-338.97730751 825.94644504 -344.42452477 820.86174153 -349.88574219 815.75097656 C-351.43670998 814.30884861 -352.99992116 812.88186394 -354.5703125 811.4609375 C-363.74606896 803.15686301 -372.78189047 794.6573794 -380.80859375 785.21875 C-382.73867842 782.97218493 -384.74418139 780.80416096 -386.75 778.625 C-391.78973825 773.03191211 -396.4110812 767.15456032 -401.00244141 761.19335938 C-402.55234847 759.18206817 -404.11007369 757.17698316 -405.66796875 755.171875 C-411.27696024 747.92450962 -416.76046886 740.60041214 -422.0625 733.125 C-422.55097412 732.43881592 -423.03944824 731.75263184 -423.54272461 731.0456543 C-424.88837664 729.13017301 -426.20234213 727.19825612 -427.5 725.25 C-427.92780762 724.62125977 -428.35561523 723.99251953 -428.79638672 723.34472656 C-431.62107979 718.90406826 -431.62107979 718.90406826 -431.1015625 716.09765625 C-419.26917789 702.44712474 -399.80114525 692.56733133 -384.5 683.25 C-383.87673828 682.86553711 -383.25347656 682.48107422 -382.61132812 682.08496094 C-363.53102538 670.34094525 -343.33568097 660.37726509 -323.0625 650.875 C-321.89033936 650.32158936 -320.71817871 649.76817871 -319.51049805 649.19799805 C-318.41519775 648.69179932 -317.31989746 648.18560059 -316.19140625 647.6640625 C-315.23435791 647.2201416 -314.27730957 646.7762207 -313.29125977 646.31884766 C-310.35743229 645.19540703 -307.60783311 644.66032235 -304.5 644.25 C-304.41363281 645.25675781 -304.32726562 646.26351562 -304.23828125 647.30078125 C-301.33553277 677.62446191 -290.11701206 702.75155915 -268.5 724.25 C-267.28376953 725.46623047 -267.28376953 725.46623047 -266.04296875 726.70703125 C-255.35761289 736.82533671 -242.76703746 744.07643249 -229.5 750.25 C-230.24507812 749.50621094 -230.99015625 748.76242187 -231.7578125 747.99609375 C-233.34133303 746.4103175 -234.92145869 744.8211038 -236.4921875 743.22265625 C-239.58097464 740.08901121 -242.66649593 737.05074943 -246.0625 734.25 C-249.9899248 730.93154668 -253.23841406 727.21593622 -256.5 723.25 C-256.90766602 722.75999512 -257.31533203 722.26999023 -257.73535156 721.76513672 C-270.04083448 706.89863706 -281.78682188 689.22128301 -286.5 670.25 C-286.77714844 669.13625 -287.05429687 668.0225 -287.33984375 666.875 C-295.12176311 631.91595215 -286.02374727 597.08627357 -267.25292969 567.26904297 C-264.51916619 563.11845606 -261.57765199 559.15078593 -258.5 555.25 C-258.07638184 554.71213867 -257.65276367 554.17427734 -257.21630859 553.62011719 C-252.98786057 548.3182572 -248.63060649 543.26130255 -243.69140625 538.60546875 C-243.0478418 537.99316406 -242.40427734 537.38085938 -241.74121094 536.75 C-240.48551369 535.56996248 -239.21198551 534.40852694 -237.91894531 533.26953125 C-234.63672238 530.19509049 -233.58263573 528.92855355 -233.01953125 524.3046875 C-233.35243515 520.38616049 -234.08998236 516.5387499 -234.875 512.6875 C-237.71142717 497.80004488 -239.02354072 482.40359518 -238.5 467.25 C-239.20125 467.023125 -239.9025 466.79625 -240.625 466.5625 C-246.74602117 463.76812077 -250.64867147 459.2424666 -254.4375 453.8125 C-254.86861084 453.19544189 -255.29972168 452.57838379 -255.74389648 451.94262695 C-268.13230144 433.80419311 -275.30108456 411.68534734 -279.5 390.25 C-279.72300781 389.30640625 -279.94601562 388.3628125 -280.17578125 387.390625 C-283.60894608 371.22905995 -283.76028343 353.31638654 -275.11328125 338.9453125 C-270.41435426 332.12221304 -264.13828667 326.49627184 -256.5 323.25 C-256.87511719 322.8375 -257.25023437 322.425 -257.63671875 322 C-266.25159008 312.27843235 -271.08192928 302.8526103 -270.875 289.6875 C-270.86847412 288.74003906 -270.86194824 287.79257812 -270.85522461 286.81640625 C-270.60478711 272.2618322 -269.25685365 257.72216693 -268.05151367 243.22137451 C-267.74326821 239.47810671 -267.45944213 235.73822735 -267.25830078 231.98754883 C-266.26674281 213.85957566 -260.66508829 198.09398858 -247.5 185.25 C-245.94072107 184.03751292 -244.37829937 182.82905483 -242.8125 181.625 C-237.18321871 176.74564027 -235.53286233 170.31632166 -233.265625 163.48144531 C-225.69936332 141.42926682 -214.54404643 119.84431747 -200.5 101.25 C-200.04915039 100.64655762 -199.59830078 100.04311523 -199.13378906 99.42138672 C-192.74576352 90.91837614 -185.88162503 82.90809038 -178.5 75.25 C-177.91669922 74.64478516 -177.33339844 74.03957031 -176.73242188 73.41601562 C-169.05608549 65.49954358 -161.31174941 57.91281956 -152.5 51.25 C-151.88914551 50.77916992 -151.27829102 50.30833984 -150.64892578 49.82324219 C-117.98511691 24.762829 -80.48136141 9.49127591 -40.0625 2.5 C-39.4022583 2.38430664 -38.7420166 2.26861328 -38.06176758 2.14941406 C-25.48815138 0.1248357 -12.70613779 0.00987593 0 0 Z " fill="#020202" transform="translate(513.5,71.75)"/>
<path d="M0 0 C0.58499268 0.29672607 1.16998535 0.59345215 1.77270508 0.89916992 C4.92069777 2.68307317 6.65169177 4.00308748 7.86962891 7.48901367 C8.44925284 10.55203971 8.85320308 13.58817093 9.1875 16.6875 C10.69188191 29.11600899 14.0394463 38.11085673 21 48.5 C26.46409927 56.65557392 31.88277169 64.84812556 31 75 C23.76054695 74.33379266 16.95701023 72.53087692 9.9375 70.6875 C-2.63272018 67.47897138 -15.15201827 64.80648982 -28 63 C-28.80808105 62.88285645 -29.61616211 62.76571289 -30.44873047 62.64501953 C-63.61425954 58.08704504 -102.79437093 56.80277861 -133 73 C-134.26070312 73.67289063 -134.26070312 73.67289063 -135.546875 74.359375 C-139.18053453 76.54987897 -141.96009372 78.8750135 -144.64453125 82.1484375 C-150.40912521 89.01971545 -150.40912521 89.01971545 -154 91 C-158.14630234 91.12076609 -161.64108014 90.22151978 -165.58203125 89.1015625 C-170.45586923 87.74064974 -175.14860074 87.59699557 -180.1875 87.625 C-181.03376953 87.62910889 -181.88003906 87.63321777 -182.75195312 87.63745117 C-188.95067275 87.77071158 -194.50927187 88.67708707 -200.46875 90.44140625 C-203.22849431 91.0504239 -204.44203076 91.17697971 -207 90 C-208.97265625 87.9609375 -208.97265625 87.9609375 -211.0625 85.375 C-220.35079677 74.71854168 -233.1770941 69.24099334 -246.5 65.3125 C-247.48432007 65.00868408 -247.48432007 65.00868408 -248.48852539 64.69873047 C-263.51070273 60.52116103 -279.71722935 60.61810546 -295.1875 60.6875 C-296.08274384 60.68998749 -296.97798767 60.69247498 -297.90036011 60.69503784 C-327.90666253 60.82343095 -356.41221883 66.69980055 -385.33203125 74.37109375 C-388 75 -388 75 -391 75 C-389.63780899 61.37808992 -382.60933795 50.45479224 -375.015625 39.44921875 C-370.2441464 31.28407223 -369.27581815 23.04661647 -368.79882812 13.72851562 C-368.23001058 8.1344611 -366.93966101 5.3694507 -362.5625 1.75 C-357.27352272 -2.00360533 -351.73957897 -5.30914478 -346.0625 -8.4375 C-345.05888428 -8.9953418 -344.05526855 -9.55318359 -343.02124023 -10.12792969 C-260.00388901 -55.79371674 -159.0973545 -62.98871977 0 0 Z " fill="#FDFDFD" transform="translate(692,315)"/>
<path d="M0 0 C1.34384766 0.19916016 1.34384766 0.19916016 2.71484375 0.40234375 C14.5576624 2.36679234 25.20136867 6.59659616 33 16 C42.94976618 32.16329363 42.07152783 52.42220915 37.83398438 70.49487305 C33.34727092 87.84689742 25.139097 105.61289496 9.10839844 115.12207031 C-10.65676425 126.05259062 -33.99346358 128.38243295 -55.96484375 122.625 C-72.66185413 117.49731927 -86.7687292 105.60711835 -95.05859375 90.26953125 C-104.52106667 72.14575588 -110.65778418 52.35369197 -106.3125 31.73828125 C-105.39633251 29.30662003 -104.35027568 27.21680773 -103 25 C-102.57589844 24.22785156 -102.15179687 23.45570313 -101.71484375 22.66015625 C-94.52249247 10.61947904 -82.39914794 5.17418493 -69.25 1.8125 C-66.50853327 1.16378522 -63.75899108 0.56915294 -61 0 C-59.36417969 -0.34224609 -59.36417969 -0.34224609 -57.6953125 -0.69140625 C-39.08010173 -3.82314171 -18.56682448 -3.32297359 0 0 Z " fill="#FCFCFC" transform="translate(654,391)"/>
<path d="M0 0 C0.70141113 0.13921875 1.40282227 0.2784375 2.12548828 0.421875 C14.13445612 2.91185537 27.57379049 7.62657418 35 18 C40.46876961 27.3554578 42.17997735 34.51286289 42.1875 45.1875 C42.19974609 46.08275391 42.21199219 46.97800781 42.22460938 47.90039062 C42.27252804 70.02284178 32.19830221 91.25318763 17 107 C1.95256365 119.92875731 -15.39899645 124.16177357 -34.6875 124.25 C-35.79544922 124.270625 -36.90339844 124.29125 -38.04492188 124.3125 C-48.85370125 124.36303783 -58.5779 122.305542 -68.1875 117.3125 C-68.86820557 116.96147217 -69.54891113 116.61044434 -70.25024414 116.2487793 C-86.82435312 107.40121426 -95.31285022 92.04182927 -100.73535156 74.64013672 C-106.20045385 56.29712212 -108.71243561 36.0141498 -99.6796875 18.4296875 C-93.83218883 8.74776348 -84.19796252 3.28079793 -73.5 0.375 C-49.63458884 -5.01681511 -23.9444308 -4.86330308 0 0 Z " fill="#FCFCFC" transform="translate(435,392)"/>
<path d="M0 0 C0.91149332 8.24388828 1.16037398 16.39745145 1.16796875 24.6875 C1.17129715 25.98405518 1.17462555 27.28061035 1.17805481 28.61645508 C1.18400615 31.35629099 1.18589942 34.09609559 1.18530273 36.8359375 C1.18522236 39.58340161 1.19202718 42.33069581 1.20581055 45.078125 C1.31903909 68.02959352 0.89754204 91.05541302 -2.875 113.75 C-3.13543091 115.36177124 -3.13543091 115.36177124 -3.40112305 117.00610352 C-9.04485504 150.76903522 -23.59528374 181.9804422 -47 207 C-47.77827148 207.8360376 -47.77827148 207.8360376 -48.57226562 208.68896484 C-58.12644292 218.85317696 -71.72505859 232.80264705 -86.5 233.625 C-90 233 -90 233 -92.375 231.375 C-96.23450641 225.73418294 -96.32003018 220.08908925 -96.25 213.5 C-96.24613281 212.6136084 -96.24226562 211.7272168 -96.23828125 210.81396484 C-96.15636515 204.53031714 -95.47471737 198.5072126 -94.453125 192.3046875 C-92.41138386 177.41405814 -94.46488475 165.48645762 -102.9375 153.1875 C-109.95363537 145.74614431 -119.3783523 144.03015464 -129.02319336 142.05981445 C-140.22149151 139.77186731 -151.09274959 136.92937957 -161.9375 133.3125 C-163.66009033 132.74184814 -163.66009033 132.74184814 -165.41748047 132.15966797 C-174.15914257 129.16309218 -174.15914257 129.16309218 -178 126 C-177.31035156 125.97421875 -176.62070312 125.9484375 -175.91015625 125.921875 C-169.93119518 125.56100492 -165.24204146 124.62102073 -159.875 121.9375 C-158 121 -158 121 -155 120 C-153.93283296 118.20067421 -153.93283296 118.20067421 -153 116 C-152.50886719 115.26910156 -152.01773438 114.53820312 -151.51171875 113.78515625 C-149.74794328 110.53561644 -149.29247831 107.84271944 -148.8125 104.1875 C-148.65394531 103.02605469 -148.49539063 101.86460937 -148.33203125 100.66796875 C-148.16767578 99.34732422 -148.16767578 99.34732422 -148 98 C-146.81664062 98.40992188 -145.63328125 98.81984375 -144.4140625 99.2421875 C-142.81782065 99.78678766 -141.22146003 100.33103977 -139.625 100.875 C-138.85027344 101.14441406 -138.07554687 101.41382813 -137.27734375 101.69140625 C-126.70126041 105.27503779 -116.983816 106.3632985 -105.8125 106.3125 C-104.52327637 106.30686035 -103.23405273 106.3012207 -101.90576172 106.29541016 C-80.39171294 106.02073958 -61.28112698 100.2246737 -45.25 85.46875 C-27.98805175 67.57526706 -23.2186782 44.31539939 -19.265625 20.61328125 C-17.1330213 8.22048418 -17.1330213 8.22048418 -12 4 C-7.83208653 1.38467581 -4.9930255 0 0 0 Z " fill="#FCFCFC" transform="translate(728,423)"/>
<path d="M0 0 C7.28863828 2.1875664 13.08715305 4.10139179 17 11 C18.94411449 15.87096818 19.65378981 20.71976026 20.375 25.875 C23.91753529 49.4599872 30.81792768 74.67605993 50.0078125 90.4765625 C71.78173082 106.16427715 97.06721129 110.32144826 123.453125 106.46875 C129.99366113 105.11958111 136.29761548 103.03726206 142.57421875 100.76953125 C145 100 145 100 148 100 C148.09796875 100.6290625 148.1959375 101.258125 148.296875 101.90625 C149.83688614 110.7214862 152.13395966 116.96973911 159.12109375 122.7734375 C163.37597532 125.55105249 167.28698273 126.29364721 172.3125 126.625 C173.38113281 126.69976563 174.44976562 126.77453125 175.55078125 126.8515625 C176.76314453 126.92503906 176.76314453 126.92503906 178 127 C175.33459566 129.66540434 172.30322802 130.46115276 168.80859375 131.64453125 C168.07949799 131.89465469 167.35040222 132.14477814 166.59921265 132.40248108 C164.21486166 133.21465546 161.82668542 134.01466738 159.4375 134.8125 C158.627435 135.08555969 157.81737 135.35861938 156.98275757 135.63995361 C145.71672707 139.41904129 134.64718691 142.59352184 122.85522461 144.30395508 C113.30149095 145.81367881 106.97613597 150.45632199 100.60546875 157.58203125 C95.35382015 165.49144849 94.4349274 172.14996118 94.6875 181.5625 C94.69716797 182.64724609 94.70683594 183.73199219 94.71679688 184.84960938 C94.77888665 189.29577682 94.88811863 193.68286823 95.50390625 198.08984375 C96.13632108 203.07446769 96.22264571 207.98048705 96.25 213 C96.270625 213.94617188 96.29125 214.89234375 96.3125 215.8671875 C96.34620635 221.95118312 95.67496958 226.50006254 93 232 C88.89714657 234.73523562 85.71705777 234.93808906 81 234 C64.8355684 227.22008465 50.31209142 213.21658399 39.6875 199.5 C38.98874756 198.59834106 38.98874756 198.59834106 38.27587891 197.6784668 C12.66870617 164.23846087 2.5753771 125.8018376 -0.125 84.125 C-0.18803818 83.15468338 -0.18803818 83.15468338 -0.25234985 82.1647644 C-1.11875898 68.30573617 -1.18828314 54.44463256 -1.1875 40.5625 C-1.18840637 39.51846008 -1.18931274 38.47442017 -1.19024658 37.39874268 C-1.18901718 24.89691399 -0.91530592 12.46985821 0 0 Z " fill="#FCFCFC" transform="translate(296,422)"/>
<path d="M0 0 C3.60650749 0.56944855 5.07843192 1.82353001 7.5 4.5 C19.77150107 17.1790417 35.23176187 25.86766543 52 31 C52.9384375 31.29648437 53.876875 31.59296875 54.84375 31.8984375 C86.68135042 40.93101515 125.41302879 37.5754828 154.375 21.6875 C163.86007281 16.23556806 171.98351867 9.52398111 179.24609375 1.3359375 C181 0 181 0 183.08984375 0.125 C187.04878406 1.93850231 188.59360367 5.95146854 190.09765625 9.83203125 C191.6995614 15.75564541 191.32804828 21.97690315 191.3125 28.0625 C191.32861328 29.29677734 191.34472656 30.53105469 191.36132812 31.80273438 C191.37146649 51.17714163 185.67507483 69.98195174 172.1875 84.3125 C163.11243857 92.83016802 151.74211363 98.0667475 139.25 98.5 C130.7983054 98.18734781 125.30501259 95.17127192 119.54296875 89.06640625 C115.93549021 84.23512487 114 79.00033471 114 73 C114.86882812 72.57589844 115.73765625 72.15179687 116.6328125 71.71484375 C126.28470749 67.04702788 126.28470749 67.04702788 133 59 C133.71184372 56.23063537 133.89876839 53.88510088 134 51 C129.32316191 51.49148188 125.05497864 52.21504296 120.52246094 53.51147461 C111.00135243 56.10552843 101.5510054 56.41808056 91.75 56.4375 C90.73836792 56.44621628 90.73836792 56.44621628 89.70629883 56.45510864 C78.43029708 56.52208089 68.24038587 54.60795126 57.375 51.8125 C53.9304215 50.84396411 53.9304215 50.84396411 50 51 C50.43987676 56.49845949 51.34487105 59.82270978 55 64 C58.55262954 66.53530984 62.24682747 68.77674665 66 71 C67.485 71.99 67.485 71.99 69 73 C69.86431162 79.05018131 68.15162688 83.91104954 65 89 C60.34741315 94.30901618 54.91844267 97.55528393 47.90234375 98.3515625 C34.26196343 98.92557629 23.11093599 94.01827777 13 85 C-2.67351933 68.90554887 -7.09521898 49.53562604 -7.3125 27.8125 C-7.33014404 26.8030835 -7.34778809 25.79366699 -7.3659668 24.75366211 C-7.35759465 15.45068234 -5.70309977 7.47302728 0 0 Z " fill="#FCFCFC" transform="translate(420,600)"/>
<path d="M0 0 C4.16510461 2.70453301 8.0536471 5.58341679 11.9375 8.6875 C27.83776647 21.09555506 46.17484566 29.97222377 65 37 C65.92296875 37.35707031 66.8459375 37.71414063 67.796875 38.08203125 C113.10168309 54.51484459 162.14826653 50.18242607 206 32 C206.79277344 31.67128906 207.58554687 31.34257813 208.40234375 31.00390625 C224.80415075 24.05691945 239.65650901 14.34189686 253.41015625 3.08203125 C256 1 256 1 258 0 C256.46787583 5.70647447 253.60050973 10.20960454 250.4375 15.125 C249.9002832 15.96667725 249.36306641 16.80835449 248.80957031 17.67553711 C244.49887963 24.36403145 239.93638598 30.75528616 235 37 C234.33484375 37.85722656 233.6696875 38.71445312 232.984375 39.59765625 C228.90205424 44.79698998 224.60438418 49.75104156 220.1484375 54.6328125 C218.24848159 56.72621846 216.39998279 58.85195674 214.5625 61 C213.70785156 61.9590625 213.70785156 61.9590625 212.8359375 62.9375 C211.52204671 64.4135305 210.23875318 65.91702319 208.9765625 67.4375 C193.13325576 85.17335191 162.38487185 90.8811603 139.59912109 92.19628906 C115.43123354 93.22443465 92.51410225 89.97668386 70 81 C69.36529785 80.75056641 68.7305957 80.50113281 68.07666016 80.24414062 C57.86150757 76.09298434 51.20538979 70.05053325 44 62 C43.06994141 60.98099609 43.06994141 60.98099609 42.12109375 59.94140625 C41.02719892 58.71571687 39.94928127 57.47560527 38.88671875 56.22265625 C37.38923877 54.45854422 35.87057217 52.72394419 34.33203125 50.99609375 C23.10204612 38.28740755 13.71292021 24.52824109 5 10 C4.00325247 8.43542319 3.00372607 6.87260904 2 5.3125 C0 2 0 2 0 0 Z " fill="#FCFCFC" transform="translate(383,761)"/>
<path d="M0 0 C0.74636719 -0.00056396 1.49273438 -0.00112793 2.26171875 -0.00170898 C8.24414342 0.11687677 15.29108465 0.91608465 19.75 5.375 C19.99000054 9.1807229 20.14445254 12.98012857 20.26757812 16.79101562 C21.30150272 41.6247139 32.17392325 65.41281961 47.75 84.375 C53.16027901 91.23247299 56.23899564 95.9477432 56.078125 104.9296875 C55.57415222 108.68548467 54.22390692 110.53728324 51.75 113.375 C49.39729407 114.55135297 47.929248 114.50859359 45.3125 114.5 C44.13880859 114.50386719 44.13880859 114.50386719 42.94140625 114.5078125 C40.75 114.375 40.75 114.375 37.75 113.375 C28.5846048 112.18922633 22.52555797 115.49829389 14.69335938 119.8203125 C8.29323459 123.15123246 2.96672682 124.37869756 -4.25 123.375 C-7.43935782 122.32471413 -10.29831578 120.9672847 -13.25 119.375 C-14.66512794 118.66359753 -16.08174634 117.95515042 -17.5 117.25 C-19.55351786 116.22726757 -21.59473675 115.19355961 -23.625 114.125 C-29.08729319 112.5643448 -34.80207123 112.94998845 -40.25 114.375 C-44.28937693 114.85625389 -47.2313603 115.09877031 -50.625 112.6875 C-54.16283814 107.65288419 -54.63968654 103.94644541 -53.83203125 97.90234375 C-52.57664319 92.45109492 -49.33320338 88.68844951 -45.82421875 84.43359375 C-29.20605808 64.26598135 -16.8601151 37.38859196 -18.50390625 10.7890625 C-18.66738273 5.84630299 -18.66738273 5.84630299 -16.6171875 3.53125 C-11.08637584 0.82973143 -6.126449 -0.01164464 0 0 Z " fill="#FCFCFC" transform="translate(511.25,420.625)"/>
<path d="M0 0 C1.14839355 0.14453613 2.29678711 0.28907227 3.47998047 0.43798828 C48.69254191 6.31659778 92.47314807 20.84252838 133.03125 41.49804688 C135.73341198 42.86512751 138.45636437 44.17659767 141.1875 45.484375 C150.83455489 50.33876088 155.76769589 55.51787032 159.9453125 65.55859375 C161 69 161 69 160 72 C159.39865234 71.63874023 158.79730469 71.27748047 158.17773438 70.90527344 C134.59756495 56.79816528 110.68262063 44.80670494 85 35 C83.95150879 34.59652344 82.90301758 34.19304687 81.82275391 33.77734375 C38.6995519 17.39579828 -7.3090498 10.86032248 -53.25 10.8125 C-54.55718491 10.81073257 -54.55718491 10.81073257 -55.89077759 10.80892944 C-71.28413504 10.81129186 -86.41954403 11.57034344 -101.6875 13.6875 C-102.92064941 13.85830078 -104.15379883 14.02910156 -105.42431641 14.20507812 C-159.49256762 22.03210116 -211.94742384 40.87618058 -258.2043457 69.9753418 C-260 71 -260 71 -263 72 C-261.62245284 67.49166384 -260.14558721 63.04304476 -258.1875 58.75 C-257.91292969 58.14671875 -257.63835937 57.5434375 -257.35546875 56.921875 C-252.98499062 50.72511638 -245.8225602 47.43138766 -239.3125 43.9375 C-237.7361377 43.09094849 -237.7361377 43.09094849 -236.12792969 42.22729492 C-208.86270345 27.81274631 -179.88423535 16.63344399 -150 9 C-149.01918457 8.74766602 -148.03836914 8.49533203 -147.02783203 8.23535156 C-130.15989313 3.96090753 -113.26334626 1.11625452 -96 -1 C-94.66630371 -1.17789063 -94.66630371 -1.17789063 -93.30566406 -1.359375 C-62.64966417 -5.40668972 -30.58454577 -3.90272632 0 0 Z " fill="#F8F8F8" transform="translate(563,161)"/>
<path d="M0 0 C12.39159362 -0.12712949 24.69916878 0.18030364 37.07196045 0.85531616 C49.49915746 1.52670825 61.92641992 2.19611195 74.375 2.1875 C75.20870117 2.18814453 76.04240234 2.18878906 76.90136719 2.18945312 C82.23978148 2.1411019 87.51055062 1.7224194 92.82666016 1.25170898 C98.37743683 0.81142196 103.93586721 0.62646323 109.5 0.4375 C110.70946289 0.3950415 111.91892578 0.35258301 113.16503906 0.30883789 C123.44651879 -0.02885015 133.71430396 -0.10664892 144 0 C142.17700703 4.10173419 140.80145101 6.59762719 137 9 C134.54223633 9.87548828 134.54223633 9.87548828 131.83203125 10.5703125 C130.85685547 10.82683594 129.88167969 11.08335937 128.87695312 11.34765625 C127.86568359 11.60417969 126.85441406 11.86070312 125.8125 12.125 C123.79743907 12.64558915 121.78307321 13.16887884 119.76953125 13.6953125 C118.87854736 13.92234863 117.98756348 14.14938477 117.06958008 14.38330078 C115.02861374 14.8128098 115.02861374 14.8128098 114 16 C114.62648438 16.04898438 115.25296875 16.09796875 115.8984375 16.1484375 C116.71570313 16.22320313 117.53296875 16.29796875 118.375 16.375 C119.18710937 16.44460938 119.99921875 16.51421875 120.8359375 16.5859375 C123 17 123 17 125 19 C118.37163519 22.06310798 111.76601375 24.49858102 104.6875 26.25 C104.03072266 26.41274414 103.37394531 26.57548828 102.69726562 26.74316406 C95.7247264 28.40010956 88.94218945 29.16105559 81.78515625 29.203125 C80.62505287 29.21167511 80.62505287 29.21167511 79.44151306 29.22039795 C77.80859725 29.22979862 76.17566289 29.23636218 74.54272461 29.24023438 C72.10039013 29.24985081 69.65893131 29.28088341 67.21679688 29.3125 C54.13050803 29.40137968 41.56130558 28.07962911 29.1875 23.5 C28.06730469 23.0978125 26.94710938 22.695625 25.79296875 22.28125 C23 21 23 21 20 18 C22.97 17.34 25.94 16.68 29 16 C27.2365625 15.4121875 27.2365625 15.4121875 25.4375 14.8125 C24.22126953 14.39871094 24.22126953 14.39871094 22.98046875 13.9765625 C20.74564355 13.24431309 18.49523179 12.55935136 16.23828125 11.8984375 C14.90884206 11.49483156 13.579415 11.09118564 12.25 10.6875 C10.37054688 10.13642578 10.37054688 10.13642578 8.453125 9.57421875 C4.1730328 7.62300025 2.65191915 5.83111221 0 2 C0 1.34 0 0.68 0 0 Z " fill="#FAFAFA" transform="translate(440,594)"/>
<path d="M0 0 C1.04542969 0.31710937 2.09085938 0.63421875 3.16796875 0.9609375 C16.95683659 5.60664925 30.64715182 15.32924434 38.12109375 28.0078125 C39.50403804 31.14248623 39.5349125 33.6567969 39 37 C35.25451843 39.49698771 33.72143168 39.12571771 29.43408203 38.53417969 C25.46339879 37.66278 22.03576293 35.97553522 18.4375 34.125 C-5.63163854 22.07939996 -33.9053861 20.20342715 -60 27 C-60.66 27.33 -61.32 27.66 -62 28 C-69.08958838 28.5811138 -69.08958838 28.5811138 -72.9375 26.125 C-75.32550042 23.66463593 -75.91824377 22.70310358 -76.3125 19.3125 C-75.81860475 14.07721032 -74.05893912 10.74054647 -70.10546875 7.3984375 C-51.27443665 -5.11281041 -20.99197045 -7.14249617 0 0 Z " fill="#040404" transform="translate(641,336)"/>
<path d="M0 0 C1.75860352 -0.01740234 1.75860352 -0.01740234 3.55273438 -0.03515625 C18.65720072 0.01488616 36.20334187 3.41434745 48.0625 13.375 C50.63700558 16.33958218 51.25948827 18.61053387 51.5 22.4375 C51.0625 26.375 51.0625 26.375 49.1875 28.8125 C44.54635187 32.22510892 40.53871013 31.13056201 35.0625 30.375 C33.74887944 30.13495954 32.43643772 29.88841198 31.125 29.63671875 C3.2328995 24.42388228 -22.38491598 27.01119961 -47.9375 39.1875 C-52.40390857 41.26599435 -55.98746705 42.375 -60.9375 42.375 C-62.9375 41.3125 -62.9375 41.3125 -63.9375 39.375 C-64.45393016 33.36108749 -62.62218536 30.64940295 -59.12109375 25.96484375 C-44.14948926 8.20782447 -22.85426816 -0.22541196 0 0 Z " fill="#040404" transform="translate(407.9375,332.625)"/>
<path d="M0 0 C10.09259719 6.7398722 10.09259719 6.7398722 13.09375 10.61328125 C12.84375 13.36328125 12.84375 13.36328125 12.09375 15.61328125 C1.6820272 17.00926643 -4.51196843 13.652604 -13.15380859 8.58789062 C-16.88785578 6.51122353 -20.89154211 5.04912972 -24.90625 3.61328125 C-24.82375 4.64453125 -24.74125 5.67578125 -24.65625 6.73828125 C-24.95556637 11.37768499 -25.86027433 13.13294563 -28.90625 16.61328125 C-31.69734164 17.21818635 -33.62619996 17.41397019 -36.41015625 17.33984375 C-37.48969826 17.34133926 -37.48969826 17.34133926 -38.59104919 17.34286499 C-40.10825683 17.33819523 -41.62548158 17.31880505 -43.14233398 17.28564453 C-45.46543577 17.23834872 -47.78395947 17.24453417 -50.10742188 17.2578125 C-51.5833607 17.2466608 -53.05928021 17.23244214 -54.53515625 17.21484375 C-55.22895889 17.21666656 -55.92276154 17.21848938 -56.6375885 17.22036743 C-59.83093656 17.12635414 -61.48878748 17.01942366 -63.82397461 14.74755859 C-65.02904796 12.37112024 -65.54073414 10.24499545 -65.90625 7.61328125 C-72.03004659 10.38632122 -77.02466859 13.82586213 -82.29296875 18.00390625 C-85.16310051 19.77146124 -86.60181927 20.0531004 -89.90625 19.61328125 C-90.23625 19.28328125 -90.56625 18.95328125 -90.90625 18.61328125 C-90.77360454 12.11365351 -88.47368017 8.17254071 -83.90625 3.61328125 C-59.07022477 -17.62729132 -27.11764062 -17.17964164 0 0 Z " fill="#050505" transform="translate(656.90625,419.38671875)"/>
<path d="M0 0 C5.60565444 4.33929017 10.15106374 8.43505992 13 15 C13.3125 17.875 13.3125 17.875 13 20 C12 21 12 21 9.91015625 21.40234375 C5.52017388 20.79540659 2.8480138 18.26877791 -0.5625 15.5625 C-1.87186607 14.53727789 -3.18553802 13.51752605 -4.50390625 12.50390625 C-5.07955322 12.04830322 -5.6552002 11.5927002 -6.24829102 11.12329102 C-8.15373347 9.90141774 -9.78943863 9.42623816 -12 9 C-12.185625 10.3921875 -12.185625 10.3921875 -12.375 11.8125 C-13 15 -13 15 -15 18 C-17.5890207 18.31694868 -19.93492528 18.44410572 -22.52734375 18.43359375 C-23.64442467 18.44145653 -23.64442467 18.44145653 -24.78407288 18.44947815 C-26.36018629 18.45590537 -27.93634762 18.45455225 -29.51245117 18.44604492 C-31.92518596 18.43754339 -34.3355468 18.4662678 -36.74804688 18.49804688 C-38.27864512 18.49965918 -39.80924757 18.49908079 -41.33984375 18.49609375 C-42.06179428 18.50732773 -42.78374481 18.51856171 -43.52757263 18.53013611 C-46.80836498 18.48447457 -48.5363612 18.44857955 -50.94677734 16.11645508 C-52.13170674 13.73533478 -52.4929219 11.89626214 -52.6875 9.25 C-52.78611328 8.05117188 -52.78611328 8.05117188 -52.88671875 6.828125 C-52.94279297 5.92320312 -52.94279297 5.92320312 -53 5 C-55.45987868 6.05902966 -57.91790702 7.12203974 -60.375 8.1875 C-61.10871826 8.50340088 -61.84243652 8.81930176 -62.59838867 9.14477539 C-66.6293088 10.89779305 -70.48021229 12.7760152 -74.3125 14.9375 C-79.46323764 17.62255233 -84.31103651 17.4866984 -90 17 C-90.609375 15.17578125 -90.609375 15.17578125 -91 13 C-83.76247013 1.36825556 -64.93580723 -6.81504746 -52 -10 C-33.45368461 -13.9103677 -15.46838771 -11.11219758 0 0 Z " fill="#050505" transform="translate(445,418)"/>
<path d="M0 0 C3.125 1.5625 3.125 1.5625 4.125 2.5625 C4.21200342 4.19722882 4.23201063 5.83564055 4.22265625 7.47265625 C4.21943359 8.46201172 4.21621094 9.45136719 4.21289062 10.47070312 C4.20451172 11.51162109 4.19613281 12.55253906 4.1875 13.625 C4.18298828 14.66978516 4.17847656 15.71457031 4.17382812 16.79101562 C4.16199913 19.3815666 4.14551689 21.97200559 4.125 24.5625 C1.34595831 23.20611444 -1.10063695 21.72124414 -3.625 19.9375 C-7.94433009 17.19545337 -10.82413528 16.95291288 -15.875 17.5625 C-18.15392497 19.44491928 -18.15392497 19.44491928 -18.3125 22.48828125 C-18.21195071 25.68789185 -18.21195071 25.68789185 -15.75 27.29296875 C-14.326875 28.01419922 -14.326875 28.01419922 -12.875 28.75 C-6.33145711 32.71167926 -1.67994294 36.24933401 1.125 43.5625 C2.39208289 51.47537295 1.58306273 59.60841075 1.125 67.5625 C1.04649621 69.10295887 0.96942326 70.64349113 0.89355469 72.18408203 C0.37683848 82.64826939 -0.21842547 93.10620138 -0.875 103.5625 C-4.43171647 100.17119071 -6.61548675 96.70443717 -8.75 92.3125 C-9.09587158 91.60722168 -9.44174316 90.90194336 -9.7980957 90.17529297 C-20.14841197 68.65256188 -33.19329542 35.62645466 -24.984375 11.8515625 C-22.42702865 6.57478448 -18.7159658 2.78981053 -13.875 -0.4375 C-8.87109903 -2.10546699 -4.83958648 -2.00907169 0 0 Z " fill="#F9F9F9" transform="translate(275.875,412.4375)"/>
<path d="M0 0 C5.73057215 4.75515561 10.55527933 9.87526792 11.9375 17.4375 C14.53662986 46.89430513 2.46133361 78.32669611 -12.0625 103.4375 C-12.7225 103.4375 -13.3825 103.4375 -14.0625 103.4375 C-14.35157 97.42776551 -14.6362076 91.41784215 -14.91699219 85.40771484 C-15.01282169 83.36924777 -15.10979772 81.33083423 -15.20800781 79.29248047 C-16.93299122 43.43746816 -16.93299122 43.43746816 -9.41796875 34.4765625 C-5.71848583 30.51819928 -1.87456036 27.89263284 2.9375 25.4375 C3.10431109 22.52097826 3.10431109 22.52097826 2.9375 19.4375 C0.98516003 17.0945296 0.98516003 17.0945296 -2.5625 16.875 C-7.74340219 16.94142182 -11.00958919 19.82346432 -14.9609375 22.90625 C-17.0625 24.4375 -17.0625 24.4375 -19.0625 24.4375 C-19.20750644 20.83375537 -19.29646763 17.23075758 -19.375 13.625 C-19.41689453 12.60083984 -19.45878906 11.57667969 -19.50195312 10.52148438 C-19.54750939 7.74255248 -19.54345136 5.17573575 -19.0625 2.4375 C-16.66015625 0.28125 -16.66015625 0.28125 -14.0625 -0.5625 C-13.44375 -0.789375 -12.825 -1.01625 -12.1875 -1.25 C-7.56632962 -1.92958388 -4.24181182 -2.1641897 0 0 Z " fill="#F8F8F8" transform="translate(763.0625,412.5625)"/>
<path d="M0 0 C2.4375 0.375 2.4375 0.375 5 1 C6.37032649 3.74065297 6.16281518 5.98854514 6.2109375 9.0546875 C6.23696045 10.29943848 6.2629834 11.54418945 6.28979492 12.82666016 C6.30303802 13.48724426 6.31628113 14.14782837 6.32992554 14.82843018 C7.28126919 58.0234253 21.24719116 95.01914329 49.95092773 127.75219727 C53.10539048 131.44118123 54.72232993 133.96337349 55 139 C43.27697092 136.70692398 32.17322969 122.91219446 25 114 C24.21882813 113.03320312 23.43765625 112.06640625 22.6328125 111.0703125 C5.09248956 89.0085589 -7.46262198 63.31443737 -7.3125 34.6875 C-7.30831055 33.5931665 -7.30412109 32.49883301 -7.29980469 31.37133789 C-7.14194962 20.04523673 -5.76892337 9.9464196 0 0 Z " fill="#F6F6F6" transform="translate(267,657)"/>
<path d="M0 0 C0.55010742 0.09087891 1.10021484 0.18175781 1.66699219 0.27539062 C23.17871255 3.71797205 44.85707936 4.84643287 66.33984375 0.65625 C69.34888715 0.11674169 71.96196121 -0.14268675 75 0 C71.43893241 3.65322091 67.72464536 7.03581519 63.8125 10.3125 C63.24370117 10.79178955 62.67490234 11.2710791 62.08886719 11.76489258 C57.90629704 15.27597607 53.64845929 18.68429371 49.3671875 22.07421875 C45.46173728 25.25142495 41.72621024 28.61580906 38 32 C34.32043709 30.43767979 31.83484207 28.16415918 28.9375 25.4375 C22.51299465 19.47297018 15.73072616 13.99773714 8.8984375 8.5078125 C7.90070313 7.70085938 6.90296875 6.89390625 5.875 6.0625 C4.96492188 5.33160156 4.05484375 4.60070312 3.1171875 3.84765625 C1 2 1 2 0 0 Z " fill="#F8F8F8" transform="translate(475,866)"/>
<path d="M0 0 C2.5 1.875 2.5 1.875 4 4 C4 4.66 4 5.32 4 6 C4.515625 5.67 5.03125 5.34 5.5625 5 C8.9260416 3.6200855 11.39238959 3.62025154 15 4 C17.75329021 5.79562405 19.52627461 7.05254922 21 10 C21.54413517 16.31196799 20.68491431 20.76164142 17 26 C14.04051747 28.55955245 12.33332044 28.95906591 8.4375 29.4375 C5 29 5 29 2.625 27.25 C1.05214568 25.07220172 0.37623037 23.63361256 0 21 C-0.99 21.66 -1.98 22.32 -3 23 C-6.8973724 23.50835292 -8.50556726 23.32962183 -11.8125 21.125 C-14.72629982 18.2944516 -15.18480702 16.70176173 -15.3125 12.75 C-15.26781479 8.12508029 -14.04490209 5.5668853 -11 2 C-7.33135609 -0.4457626 -4.26593113 -0.72100244 0 0 Z " fill="#0C0C0C" transform="translate(652,895)"/>
<path d="M0 0 C4.92474516 0.43619171 6.98356425 1.44714296 10.25 5.125 C14.7454661 9.88401939 19.55062951 13.41159371 25 17 C33.53226589 22.62096099 40.89572476 27.8248756 44 38 C44.75095799 44.45615272 43.99677575 49.25617982 41 55 C39.68 55 38.36 55 37 55 C35.5899349 51.877713 34.75821745 48.90950653 34.125 45.5625 C31.9663531 35.60965473 24.45304038 30.70650677 16.5625 25.1875 C9.1876957 19.87926174 2.71392949 13.39671014 -1 5 C-0.75 2.0625 -0.75 2.0625 0 0 Z " fill="#0A0A0A" transform="translate(604,539)"/>
<path d="M0 0 C1.9375 0.8125 1.9375 0.8125 4 2 C4.33 2.99 4.66 3.98 5 5 C4.01 6.485 4.01 6.485 3 8 C2.66042437 12.07490752 2.68667514 13.53001271 5 17 C5.15855469 16.39671875 5.31710937 15.7934375 5.48046875 15.171875 C6.59203819 11.36428908 7.5701331 8.51836891 10.125 5.4375 C14.16713866 3.41643067 17.57069372 3.08762529 22 4 C25.13657114 5.6812553 27.22994683 8.0290634 29.4375 10.8125 C30.6178222 15.40264191 29.63790698 19.63305647 27.6875 23.8125 C25.22557198 27.00388818 23.32852846 28.78933334 19.265625 29.43359375 C11.56486858 29.44356882 5.89786841 28.75287111 0.21484375 23.28125 C-3.85508135 18.73986785 -5.34330052 15.36096999 -5.296875 9.0703125 C-4.7672728 5.37703401 -2.59283723 2.59283723 0 0 Z " fill="#0C0C0C" transform="translate(634,922)"/>
<path d="M0 0 C2.625 0.375 2.625 0.375 5 1 C4.84978247 8.06022391 1.5714214 11.83752614 -3 17 C-3.50402344 17.58652344 -4.00804687 18.17304687 -4.52734375 18.77734375 C-7.76397945 22.2775223 -11.31500291 24.96454373 -15.23266602 27.6418457 C-26.6104461 35.4320507 -29.65820824 42.70750985 -33 56 C-34.875 55.6875 -34.875 55.6875 -37 55 C-40.59749508 49.60375738 -39.48432537 42.29622977 -39 36 C-36.52184291 25.61683548 -25.98536038 20.25196346 -17.66015625 14.85009766 C-11.12606561 10.55144014 -5.53035871 5.53035871 0 0 Z " fill="#070707" transform="translate(416,539)"/>
<path d="M0 0 C2 0.6875 2 0.6875 4 2.6875 C4.01171875 4.82421875 4.01171875 4.82421875 3.6875 7.375 C3.58824219 8.20386719 3.48898437 9.03273438 3.38671875 9.88671875 C3.11620207 11.84591533 2.81014268 13.80038328 2.47753906 15.75 C1.9174716 20.3679796 1.91204851 24.84390264 1.97265625 29.48828125 C1.98528819 31.37044097 1.99765018 33.25260251 2.00976562 35.13476562 C2.03469553 38.08217141 2.06283125 41.02948102 2.09594727 43.97680664 C2.1260165 46.83480467 2.14386945 49.6926763 2.16015625 52.55078125 C2.17361588 53.43719803 2.1870755 54.32361481 2.20094299 55.2368927 C2.20982727 57.3881198 2.11423139 59.53928955 2 61.6875 C0 63.6875 0 63.6875 -3 63.9375 C-6 63.6875 -6 63.6875 -8 61.6875 C-10.14202147 55.11005597 -10.34812462 48.88140097 -10.3125 42 C-10.30903564 40.91090332 -10.30557129 39.82180664 -10.30200195 38.69970703 C-10.20620012 31.41559205 -9.7011366 24.27598682 -8.6875 17.0625 C-8.56995361 16.21727783 -8.45240723 15.37205566 -8.33129883 14.5012207 C-7.53784841 9.4854987 -6.3144825 5.22126778 -4 0.6875 C-2 -0.3125 -2 -0.3125 0 0 Z " fill="#F1F1F1" transform="translate(288,264.3125)"/>
<path d="M0 0 C7.31924988 -0.1270458 14.52214376 0.23940616 21.8125 0.875 C22.82248047 0.95363281 23.83246094 1.03226563 24.87304688 1.11328125 C25.84951172 1.19707031 26.82597656 1.28085937 27.83203125 1.3671875 C28.70577393 1.44050293 29.5795166 1.51381836 30.47973633 1.58935547 C33.20529555 2.03345027 35.47985045 2.888161 38 4 C38.87890625 7.171875 38.87890625 7.171875 39 11 C36.96956749 13.21968293 35.37147808 14.59377075 32.9375 16.25 C31.64906251 17.18787264 30.36132303 18.1267048 29.07421875 19.06640625 C28.40438965 19.54352051 27.73456055 20.02063477 27.04443359 20.51220703 C23.06388172 23.40896881 19.27184277 26.55208545 15.44506836 29.64746094 C11.22123755 33 11.22123755 33 9 33 C8.41947755 29.99011728 7.94010254 27.07110598 8 24 C9.9375 21.9375 9.9375 21.9375 12 21 C11.68817931 19.58318366 11.37551263 18.16655349 11.0625 16.75 C10.88847656 15.96109375 10.71445312 15.1721875 10.53515625 14.359375 C10.052444 12.23121297 9.53836822 10.11467158 9 8 C6.69 8 4.38 8 2 8 C0.23537317 4.91190305 0 3.76687864 0 0 Z " fill="#090909" transform="translate(342,889)"/>
<path d="M0 0 C2.93505604 1.37580752 3.55572157 3.04132161 5 5.9375 C5.71039965 8.78786896 6.26002396 11.48206032 6.6875 14.375 C6.8127002 15.21957764 6.93790039 16.06415527 7.06689453 16.93432617 C8.13941647 25.18544904 8.32913361 33.44110752 8.375 41.75 C8.38877686 43.04284912 8.40255371 44.33569824 8.41674805 45.66772461 C8.34834929 59.58915071 8.34834929 59.58915071 4 63.9375 C1.5625 64.125 1.5625 64.125 -1 63.9375 C-3 61.9375 -3 61.9375 -3.1953125 58.96679688 C-3.17210937 57.70931641 -3.14890625 56.45183594 -3.125 55.15625 C-3.10788492 53.75065332 -3.09096539 52.34505424 -3.07421875 50.93945312 C-3.06181152 50.203479 -3.0494043 49.46750488 -3.03662109 48.70922852 C-2.85140758 37.21981686 -2.89501259 25.98824733 -4.5625 14.59375 C-4.90474967 11.73352065 -5.15389757 8.96767029 -5.25 6.09375 C-5.27578125 5.34931641 -5.3015625 4.60488281 -5.328125 3.83789062 C-5.21984375 3.21076172 -5.1115625 2.58363281 -5 1.9375 C-2 -0.0625 -2 -0.0625 0 0 Z " fill="#F7F7F7" transform="translate(738,264.0625)"/>
<path d="M0 0 C3.25696479 0.41755959 4.63443291 0.63443291 7 3 C7.046875 4.93359375 7.046875 4.93359375 6.75 7.4375 C6.64300781 8.43523437 6.53601563 9.43296875 6.42578125 10.4609375 C6.20525088 12.29396975 5.98363738 14.12691314 5.74755859 15.95800781 C4.26107584 27.54007273 3.82567788 38.86015504 4.07397461 50.54321289 C4.09081299 51.6130542 4.10765137 52.68289551 4.125 53.78515625 C4.14820313 54.74301025 4.17140625 55.70086426 4.1953125 56.68774414 C4 59 4 59 2 61 C-1.625 60.625 -1.625 60.625 -5 60 C-7.4621134 53.30030497 -7.34419975 46.76648102 -7.3125 39.6875 C-7.30903564 38.44597168 -7.30557129 37.20444336 -7.30200195 35.92529297 C-6.96207572 6.96207572 -6.96207572 6.96207572 0 0 Z " fill="#F6F6F6" transform="translate(324,237)"/>
<path d="M0 0 C3.35282367 1.34112947 3.87832044 2.80472303 5.5 6 C9.0437505 17.2437516 8.81956045 29.14621652 8.875 40.8125 C8.88664688 41.96218765 8.88664688 41.96218765 8.89852905 43.13510132 C8.91617599 45.34699898 8.91130277 47.55762196 8.8984375 49.76953125 C8.89505371 51.06479736 8.89166992 52.36006348 8.88818359 53.69458008 C8.48353412 57.14020854 7.85844316 58.52484474 5.5 61 C3.19 60.67 0.88 60.34 -1.5 60 C-1.51458252 59.09983154 -1.52916504 58.19966309 -1.54418945 57.2722168 C-1.87986247 34.26313649 -1.87986247 34.26313649 -4.87890625 11.484375 C-6.19550603 4.09816742 -6.19550603 4.09816742 -4.3125 1.125 C-2.5 0 -2.5 0 0 0 Z " fill="#F6F6F6" transform="translate(698.5,237)"/>
<path d="M0 0 C3.7363258 0.49162182 7.17654592 1.3445456 10.75 2.5 C18.86504516 4.96092346 26.82975663 5.08174533 35.25 5.125 C36.40338867 5.13213013 36.40338867 5.13213013 37.58007812 5.1394043 C41.84257513 5.12690566 45.79335162 4.75672003 50 4 C51.62394748 3.9379225 53.25005297 3.91287959 54.875 3.9375 C56.04675781 3.95103516 56.04675781 3.95103516 57.2421875 3.96484375 C57.82226562 3.97644531 58.40234375 3.98804688 59 4 C59.66 5.32 60.32 6.64 61 8 C56.51467457 13.25294824 49.13926833 14.62606767 42.51367188 15.22460938 C27.95017654 15.96403629 13.1513247 15.01420371 1.21875 5.59375 C0 4 0 4 0 0 Z " fill="#090909" transform="translate(582,447)"/>
<path d="M0 0 C-0.0625 2.1875 -0.0625 2.1875 -1 5 C-12.44271837 15.42558785 -28.84524522 15.7081626 -43.45996094 15.19677734 C-49.37987773 14.73816018 -55.7128396 13.2871604 -60 9 C-59.625 6.375 -59.625 6.375 -59 4 C-57.783125 3.979375 -56.56625 3.95875 -55.3125 3.9375 C-54.28576172 3.92009766 -54.28576172 3.92009766 -53.23828125 3.90234375 C-51 4 -51 4 -48.8203125 4.4921875 C-31.45793126 7.61837803 -16.33881734 0 0 0 Z " fill="#090A09" transform="translate(442,447)"/>
<path d="M0 0 C18.67375756 6.45216894 37.06729204 13.29682142 55.30810547 20.8984375 C58.84488359 22.34573869 62.41134688 23.68718345 66 25 C62.53154031 26.15427136 59.97146751 25.85411443 56.3984375 25.21484375 C54.72104492 24.91767456 54.72104492 24.91767456 53.00976562 24.61450195 C51.81029297 24.39109131 50.61082031 24.16768066 49.375 23.9375 C48.14201172 23.71215576 46.90902344 23.48681152 45.63867188 23.25463867 C36.88447577 21.62075248 28.18121557 19.79683072 19.5 17.8125 C18.40349121 17.56298584 17.30698242 17.31347168 16.17724609 17.05639648 C15.15969238 16.81735596 14.14213867 16.57831543 13.09375 16.33203125 C12.20365234 16.12296143 11.31355469 15.9138916 10.39648438 15.69848633 C8.04717313 15.01374922 6.08834084 14.27495351 4 13 C2.734375 10.46875 2.734375 10.46875 1.75 7.5 C1.41484375 6.5203125 1.0796875 5.540625 0.734375 4.53125 C0 2 0 2 0 0 Z " fill="#F0F0F0" transform="translate(406,884)"/>
<path d="M0 0 C1 6.75 1 6.75 1 9 C1.66 9.7425 2.32 10.485 3 11.25 C5 14 5 14 5.5 17 C4.84188567 20.94868597 3.98659341 22.29784406 1 25 C-5.30655544 28.32590241 -12.00687254 29.86919641 -19 31 C-19.66 28.69 -20.32 26.38 -21 24 C-19.78441406 23.61328125 -18.56882812 23.2265625 -17.31640625 22.828125 C-15.73148535 22.30294411 -14.14686511 21.77685523 -12.5625 21.25 C-11.76005859 20.99734375 -10.95761719 20.7446875 -10.13085938 20.484375 C-9.36708984 20.2265625 -8.60332031 19.96875 -7.81640625 19.703125 C-7.10943604 19.47270508 -6.40246582 19.24228516 -5.67407227 19.00488281 C-3.81147809 18.12354305 -3.81147809 18.12354305 -3.26147461 16.01855469 C-2.95717924 14.0086651 -2.95717924 14.0086651 -3 12 C-8.6030216 11.69438064 -12.68917946 12.31090425 -17.921875 14.34375 C-20 15 -20 15 -24 15 C-25.4606285 12.35261084 -26 11.10551666 -26 8 C-22.04328884 6.6618184 -18.08437472 5.330278 -14.125 4 C-12.99707031 3.6184375 -11.86914062 3.236875 -10.70703125 2.84375 C-9.63066406 2.4828125 -8.55429687 2.121875 -7.4453125 1.75 C-6.45031738 1.41484375 -5.45532227 1.0796875 -4.43017578 0.734375 C-2 0 -2 0 0 0 Z " fill="#0E0E0E" transform="translate(387,941)"/>
<path d="M0 0 C-0.45196245 1.60597325 -0.91182327 3.20972508 -1.375 4.8125 C-1.75785156 6.15248047 -1.75785156 6.15248047 -2.1484375 7.51953125 C-3 10 -3 10 -5 13 C-7.93261236 13.92334343 -10.75509308 14.65750318 -13.75 15.3125 C-14.65363281 15.51834717 -15.55726563 15.72419434 -16.48828125 15.9362793 C-24.96860075 17.83687021 -33.48343031 19.58262824 -42 21.3125 C-42.98873108 21.51487778 -42.98873108 21.51487778 -43.99743652 21.72134399 C-45.89300671 22.10751695 -47.79023146 22.4855406 -49.6875 22.86328125 C-51.33298828 23.19259644 -51.33298828 23.19259644 -53.01171875 23.52856445 C-55.73944517 23.9588945 -58.24579138 24.09293538 -61 24 C-57.50994311 21.00788326 -53.61216349 19.49689719 -49.3671875 17.890625 C-48.6164798 17.60072693 -47.86577209 17.31082886 -47.09231567 17.012146 C-44.68877955 16.0854897 -42.2820217 15.16755919 -39.875 14.25 C-38.31097228 13.64902438 -36.74716806 13.04746677 -35.18359375 12.4453125 C-32.83798898 11.54224093 -30.49191895 10.6405224 -28.14398193 9.74353027 C-24.05658788 8.18164528 -19.97812407 6.60067366 -15.91113281 4.98632812 C-15.08872101 4.6613031 -14.2663092 4.33627808 -13.41897583 4.00140381 C-11.84558862 3.37853293 -10.2737864 2.75163894 -8.7038269 2.12017822 C-5.6603811 0.91841199 -3.30347727 0 0 0 Z " fill="#F4F4F4" transform="translate(614,886)"/>
<path d="M0 0 C3.9440332 2.06393263 6.39511401 4.13888212 8.03125 8.27734375 C8.44683791 12.15616423 8.33986861 14.56752095 6.78125 18.15234375 C4.87205893 20.47064719 3.96877254 20.97346211 1.03125 21.27734375 C0.37125 19.29734375 -0.28875 17.31734375 -0.96875 15.27734375 C-0.63875 14.94734375 -0.30875 14.61734375 0.03125 14.27734375 C0.19791667 11.77734375 0.19791667 11.77734375 0.03125 9.27734375 C-1.84934033 7.39675342 -4.46765038 8.15373157 -6.9609375 8.14453125 C-9.17649018 8.20607844 -9.17649018 8.20607844 -11.96875 9.27734375 C-11.96875 11.58734375 -11.96875 13.89734375 -11.96875 16.27734375 C-10.64875 16.93734375 -9.32875 17.59734375 -7.96875 18.27734375 C-7.96875 20.25734375 -7.96875 22.23734375 -7.96875 24.27734375 C-10.65625 24.65234375 -10.65625 24.65234375 -13.96875 24.27734375 C-17.86467353 20.38142022 -19.67193096 17.48228515 -20.40625 12.02734375 C-19.82689466 7.0614408 -17.68726931 4.50972636 -13.96875 1.27734375 C-9.54527093 -1.36970834 -4.83341455 -1.77417002 0 0 Z " fill="#0F0F0E" transform="translate(374.96875,918.72265625)"/>
<path d="M0 0 C2.86785365 1.14804901 3.8324517 2.21435681 5.65625 4.67578125 C9.0778441 8.88464479 12.7990308 11.27324854 17.52734375 13.859375 C18.16800781 14.23191406 18.80867187 14.60445312 19.46875 14.98828125 C19.46875 15.31828125 19.46875 15.64828125 19.46875 15.98828125 C6.26875 15.98828125 -6.93125 15.98828125 -20.53125 15.98828125 C-20.53125 15.32828125 -20.53125 14.66828125 -20.53125 13.98828125 C-19.9021875 13.73175781 -19.273125 13.47523438 -18.625 13.2109375 C-12.28519695 10.37521234 -8.55600865 7.26680594 -4.41796875 1.68359375 C-2.53125 -0.01171875 -2.53125 -0.01171875 0 0 Z " fill="#F0F0F0" transform="translate(512.53125,568.01171875)"/>
<path d="M0 0 C1.051875 -0.00515625 2.10375 -0.0103125 3.1875 -0.015625 C6 0.25 6 0.25 9 2.25 C9.4375 4.6875 9.4375 4.6875 9 7.25 C6.77377045 9.42445677 5.41334115 10.19420794 2.30859375 10.61328125 C0.88740234 10.58814453 0.88740234 10.58814453 -0.5625 10.5625 C-1.51253906 10.55863281 -2.46257812 10.55476563 -3.44140625 10.55078125 C-6 10.25 -6 10.25 -9 8.25 C-9.375 5.25 -9.375 5.25 -9 2.25 C-5.53767506 -0.05821663 -4.08201684 -0.02000989 0 0 Z " fill="#F0F0F0" transform="translate(314,400.75)"/>
<path d="M0 0 C1.06347656 0.00515625 2.12695312 0.0103125 3.22265625 0.015625 C4.28355469 0.01046875 5.34445312 0.0053125 6.4375 0 C9.28515625 0.265625 9.28515625 0.265625 12.28515625 2.265625 C12.66015625 5.265625 12.66015625 5.265625 12.28515625 8.265625 C8.96299387 10.48039992 7.73482302 10.56230207 3.84765625 10.578125 C2.90019531 10.59488281 1.95273437 10.61164063 0.9765625 10.62890625 C-2.08609684 10.21551391 -3.44102934 9.30291971 -5.71484375 7.265625 C-4.6393111 0.45391821 -4.6393111 0.45391821 0 0 Z " fill="#EFEFEF" transform="translate(706.71484375,400.734375)"/>
<path d="M0 0 C3.0625 0.3125 3.0625 0.3125 5 1.4375 C6.0625 3.3125 6.0625 3.3125 5.875 6.4375 C5.606875 7.38625 5.33875 8.335 5.0625 9.3125 C2.27386993 10.70681504 0.14171132 10.56910094 -2.9375 10.3125 C-5.08665785 7.08876323 -5.32036803 6.04546326 -4.9375 2.3125 C-2.9375 0.3125 -2.9375 0.3125 0 0 Z " fill="#F3F3F3" transform="translate(650.9375,933.6875)"/>
<path d="M0 0 C2.375 0.75 2.375 0.75 3.375 1.75 C3.5625 4.6875 3.5625 4.6875 3.375 7.75 C1.375 9.75 1.375 9.75 -1.125 10 C-3.625 9.75 -3.625 9.75 -5.625 7.75 C-5.99296448 4.87987704 -6.00009409 3.34225382 -4.4375 0.875 C-2.625 -0.25 -2.625 -0.25 0 0 Z " fill="#F0F0F0" transform="translate(662.625,906.25)"/>
<path d="M0 0 C4.29 0.33 8.58 0.66 13 1 C9.88365565 4.11634435 7.77568045 6.01279976 4 8 C3.34 8 2.68 8 2 8 C1.34 5.36 0.68 2.72 0 0 Z " fill="#E7E7E7" transform="translate(358,897)"/>
<path d="M0 0 C2.93453261 0.36681658 3.86437246 0.86437246 6 3 C5.46428571 6.53571429 5.46428571 6.53571429 4 8 C1.5 8.125 1.5 8.125 -1 8 C-2 7 -2 7 -2.1875 4.5625 C-2 2 -2 2 0 0 Z " fill="#F2F2F2" transform="translate(646,902)"/>
<path d="M0 0 C0.66 0.33 1.32 0.66 2 1 C2 1.66 2 2.32 2 3 C-2.455 3.495 -2.455 3.495 -7 4 C-4.61426621 2.10786631 -2.92824652 0.97608217 0 0 Z " fill="#C5C5C5" transform="translate(560,906)"/>
</svg>
